<?xml version="1.0" encoding="iso-8859-1"?>
<!-- Generator: Adobe Illustrator 16.0.0, SVG Export Plug-In . SVG Version: 6.00 Build 0)  -->
<!DOCTYPE svg PUBLIC "-//W3C//DTD SVG 1.1//EN" "http://www.w3.org/Graphics/SVG/1.1/DTD/svg11.dtd">
<svg version="1.1" id="Capa_1" xmlns="http://www.w3.org/2000/svg" xmlns:xlink="http://www.w3.org/1999/xlink" x="0px" y="0px"
	 width="34px" height="34px" viewBox="0 0 34 34" style="enable-background:new 0 0 34 34;" xml:space="preserve">
<g>
	<path d="M20.083,21.376V30h3v4h-10v-4h3v-8.82l-5.42-9.886l3.508-1.924l4.236,7.728l2.458-3.024l3.104,2.521L20.083,21.376z
		 M20.917,6c-1.749,0-3.166,1.418-3.166,3.166s1.417,3.166,3.166,3.166s3.166-1.418,3.166-3.166S22.666,6,20.917,6z M12.751,7.334
		c2.024,0,3.666-1.643,3.666-3.668S14.775,0,12.751,0c-2.025,0-3.668,1.641-3.668,3.666S10.726,7.334,12.751,7.334z M9.083,16
		c-2.209,0-4,1.791-4,3.998c0,2.211,1.791,4.002,4,4.002s4-1.791,4-4.002C13.083,17.791,11.292,16,9.083,16z M27.251,11.666
		c-1.564,0-2.834,1.27-2.834,2.834s1.27,2.834,2.834,2.834c1.562,0,2.832-1.27,2.832-2.834S28.815,11.666,27.251,11.666z
		 M27.481,10.166c1.195-0.037,2.138-1.035,2.103-2.23c-0.036-1.196-1.035-2.137-2.229-2.102c-1.195,0.037-2.138,1.035-2.103,2.23
		C25.288,9.262,26.287,10.201,27.481,10.166z M20.147,5.166c1.197-0.037,2.138-1.035,2.103-2.23
		c-0.035-1.196-1.035-2.137-2.229-2.102c-1.194,0.037-2.138,1.035-2.102,2.23C17.955,4.262,18.953,5.201,20.147,5.166z
		 M10.25,10.666c0-1.748-1.418-3.166-3.167-3.166c-1.748,0-3.166,1.418-3.166,3.166c0,1.75,1.418,3.166,3.166,3.166
		C8.832,13.832,10.25,12.416,10.25,10.666z"/>
</g>
<g>
</g>
<g>
</g>
<g>
</g>
<g>
</g>
<g>
</g>
<g>
</g>
<g>
</g>
<g>
</g>
<g>
</g>
<g>
</g>
<g>
</g>
<g>
</g>
<g>
</g>
<g>
</g>
<g>
</g>
</svg>
